<svg xmlns="http://www.w3.org/2000/svg" xmlns:xlink="http://www.w3.org/1999/xlink" viewBox="0 0 196.63 119.29"><defs><style>.cls-1,.cls-6{fill:none;}.cls-2{clip-path:url(#clip-path);}.cls-3{fill:#fff;}.cls-4{fill:#231f20;}.cls-5{clip-path:url(#clip-path-2);}.cls-6{stroke:#231f20;stroke-miterlimit:10;stroke-width:2.02px;}</style><clipPath id="clip-path" transform="translate(76.95 8.74)"><rect class="cls-1" width="102" height="102"/></clipPath><clipPath id="clip-path-2" transform="translate(76.95 8.74)"><path class="cls-1" d="M58.5,82.29C21.06,82.29,23.31,36.37,42.88,23H77.43C57.86,36.37,55.61,82.29,93,82.29"/></clipPath></defs><title>square</title><g id="Layer_2" data-name="Layer 2"><g id="Layer_1-2" data-name="Layer 1"><g class="cls-2"><rect class="cls-3" x="77" y="8.79" width="101.9" height="101.9"/><path class="cls-4" d="M119.68,77.32H99C62.13,77.32,61.5,39,85.25,20.16c0,0-45-.08-45.17,0C16.33,39,17,77.33,53.81,77.33H-16.74V-8.74H119.68Z" transform="translate(76.95 8.74)"/><path class="cls-3" d="M-20.67,77.33H12.12c7.53,0,14.57-6.33,12.14-21.23-1.39-8.55,14.42-12.37,36.52-12.37V89H-20.56Z" transform="translate(76.95 8.74)"/><g class="cls-5"><line class="cls-6" x1="42.52" y1="37.6" x2="166.44" y2="37.6"/><line class="cls-6" x1="42.52" y1="43.11" x2="166.44" y2="43.11"/><line class="cls-6" x1="42.52" y1="48.61" x2="166.44" y2="48.61"/><line class="cls-6" x1="42.52" y1="54.12" x2="166.44" y2="54.12"/><line class="cls-6" x1="42.52" y1="59.62" x2="166.44" y2="59.62"/><line class="cls-6" y1="65.12" x2="123.91" y2="65.12"/></g><rect class="cls-4" x="60.21" y="92.27" width="136.42" height="27.03"/></g></g></g></svg>