<svg width="30" height="24" viewBox="0 0 30 24" fill="none" xmlns="http://www.w3.org/2000/svg">
<g filter="url(#filter0_d_215_466)">
<path d="M11.5 15C10.2812 15 9.1875 14.75 8.21875 14.2812C7.96875 14.4062 7.71875 14.5 7.4375 14.625C6.84375 14.8438 6.15625 15 5.5 15C5.28125 15 5.09375 14.875 5 14.6562C4.9375 14.4688 5.03125 14.25 5.1875 14.125V14.0938H5.21875C5.25 14.0625 5.3125 14 5.375 13.9688C5.46875 13.875 5.625 13.7188 5.78125 13.5312C5.9375 13.3125 6.125 13.0312 6.21875 12.75C5.4375 11.8438 5 10.7188 5 9.5C5 6.46875 7.90625 4 11.5 4C15.0625 4 18 6.46875 18 9.5C18 12.5625 15.0625 15 11.5 15ZM19 9.5H18.9688C18.9688 9.34375 18.9688 9.1875 18.9688 9.03125C22.3438 9.21875 24.9688 11.625 24.9688 14.5C24.9688 15.7188 24.5312 16.8438 23.75 17.75C23.8438 18.0312 24.0312 18.2812 24.1875 18.5C24.3438 18.7188 24.5 18.8438 24.5938 18.9688C24.6562 19 24.7188 19.0625 24.75 19.0625C24.75 19.0938 24.7812 19.0938 24.7812 19.0938C24.9688 19.25 25.0312 19.4688 24.9688 19.6562C24.9062 19.875 24.6875 20 24.5 20C23.8125 20 23.125 19.8438 22.5312 19.625C22.25 19.5 22 19.4062 21.75 19.2812C20.7812 19.75 19.6875 20 18.5 20C15.5 20 12.9688 18.3125 12.2188 15.9688C15.875 15.6562 19 13.0312 19 9.5Z" fill="#E6CCFF"/>
</g>
<defs>
<filter id="filter0_d_215_466" x="0.9375" y="0" width="28.0938" height="24" filterUnits="userSpaceOnUse" color-interpolation-filters="sRGB">
<feFlood flood-opacity="0" result="BackgroundImageFix"/>
<feColorMatrix in="SourceAlpha" type="matrix" values="0 0 0 0 0 0 0 0 0 0 0 0 0 0 0 0 0 0 127 0" result="hardAlpha"/>
<feOffset/>
<feGaussianBlur stdDeviation="2"/>
<feComposite in2="hardAlpha" operator="out"/>
<feColorMatrix type="matrix" values="0 0 0 0 1 0 0 0 0 0.4 0 0 0 0 1 0 0 0 1 0"/>
<feBlend mode="normal" in2="BackgroundImageFix" result="effect1_dropShadow_215_466"/>
<feBlend mode="normal" in="SourceGraphic" in2="effect1_dropShadow_215_466" result="shape"/>
</filter>
</defs>
</svg>
