<svg width="27" height="22" viewBox="0 0 27 22" fill="none" xmlns="http://www.w3.org/2000/svg">
<g filter="url(#filter0_d_215_475)">
<path d="M14 4C16.5 4 18.5312 5.15625 20 6.53125C21.4688 7.875 22.4375 9.5 22.9062 10.625C23 10.875 23 11.1562 22.9062 11.4062C22.4375 12.5 21.4688 14.125 20 15.5C18.5312 16.875 16.5 18 14 18C11.4688 18 9.4375 16.875 7.96875 15.5C6.5 14.125 5.53125 12.5 5.0625 11.4062C4.96875 11.1562 4.96875 10.875 5.0625 10.625C5.53125 9.5 6.5 7.875 7.96875 6.53125C9.4375 5.15625 11.4688 4 14 4ZM9.5 11C9.5 12.625 10.3438 14.0938 11.75 14.9062C13.125 15.7188 14.8438 15.7188 16.25 14.9062C17.625 14.0938 18.5 12.625 18.5 11C18.5 9.40625 17.625 7.9375 16.25 7.125C14.8438 6.3125 13.125 6.3125 11.75 7.125C10.3438 7.9375 9.5 9.40625 9.5 11ZM14 9C14 8.78125 13.9375 8.59375 13.875 8.375C13.8125 8.21875 13.9375 8 14.125 8C15.375 8.0625 16.5312 8.9375 16.875 10.25C17.3125 11.8438 16.375 13.4688 14.75 13.9062C13.1562 14.3438 11.5 13.375 11.0938 11.7812C11.0312 11.5625 11 11.3438 11 11.1562C10.9688 10.9688 11.1875 10.8438 11.3438 10.9062C11.5625 10.9688 11.75 11 12 11C13.0938 11 14 10.125 14 9Z" fill="#E6CCFF"/>
</g>
<defs>
<filter id="filter0_d_215_475" x="0.96875" y="0" width="26.0312" height="22" filterUnits="userSpaceOnUse" color-interpolation-filters="sRGB">
<feFlood flood-opacity="0" result="BackgroundImageFix"/>
<feColorMatrix in="SourceAlpha" type="matrix" values="0 0 0 0 0 0 0 0 0 0 0 0 0 0 0 0 0 0 127 0" result="hardAlpha"/>
<feOffset/>
<feGaussianBlur stdDeviation="2"/>
<feComposite in2="hardAlpha" operator="out"/>
<feColorMatrix type="matrix" values="0 0 0 0 1 0 0 0 0 0.4 0 0 0 0 1 0 0 0 1 0"/>
<feBlend mode="normal" in2="BackgroundImageFix" result="effect1_dropShadow_215_475"/>
<feBlend mode="normal" in="SourceGraphic" in2="effect1_dropShadow_215_475" result="shape"/>
</filter>
</defs>
</svg>
