<svg width="24" height="22" viewBox="0 0 24 22" fill="none" xmlns="http://www.w3.org/2000/svg">
<g filter="url(#filter0_d_215_472)">
<path d="M5.46875 12.4062C4.53125 11.5312 4 10.2812 4 8.96875V8.8125C4 6.625 5.5625 4.75 7.71875 4.40625C9.15625 4.15625 10.5938 4.625 11.625 5.625L12 6L12.375 5.625C13.375 4.625 14.8438 4.15625 16.25 4.40625C18.4062 4.75 20 6.625 20 8.8125V8.96875C20 10.2812 19.4375 11.5312 18.5 12.4062L12.8438 17.6875C12.625 17.9062 12.3125 18 12 18C11.6562 18 11.3438 17.9062 11.125 17.6875L5.46875 12.4062Z" fill="#E6CCFF"/>
</g>
<defs>
<filter id="filter0_d_215_472" x="0" y="0.15625" width="24" height="21.8438" filterUnits="userSpaceOnUse" color-interpolation-filters="sRGB">
<feFlood flood-opacity="0" result="BackgroundImageFix"/>
<feColorMatrix in="SourceAlpha" type="matrix" values="0 0 0 0 0 0 0 0 0 0 0 0 0 0 0 0 0 0 127 0" result="hardAlpha"/>
<feOffset/>
<feGaussianBlur stdDeviation="2"/>
<feComposite in2="hardAlpha" operator="out"/>
<feColorMatrix type="matrix" values="0 0 0 0 1 0 0 0 0 0.4 0 0 0 0 1 0 0 0 1 0"/>
<feBlend mode="normal" in2="BackgroundImageFix" result="effect1_dropShadow_215_472"/>
<feBlend mode="normal" in="SourceGraphic" in2="effect1_dropShadow_215_472" result="shape"/>
</filter>
</defs>
</svg>
