<svg width="24" height="24" viewBox="0 0 24 24" fill="none" xmlns="http://www.w3.org/2000/svg">
<g clip-path="url(#clip0_615_353)">
<path d="M23.9999 12C23.9999 18.6274 18.6274 24 11.9999 24C5.37252 24 -6.10352e-05 18.6274 -6.10352e-05 12C-6.10352e-05 5.37258 5.37252 0 11.9999 0C18.6274 0 23.9999 5.37258 23.9999 12Z" fill="white"/>
<path d="M18.6021 8.44336C18.6021 12.2716 13.7491 13.7373 11.007 13.7373C10.3324 13.7373 9.91888 13.9561 9.54892 14.2842C9.17896 14.6342 8.93958 15.0936 8.93958 15.6186V18.1562V20.6938C8.93958 21.2188 9.17896 21.6782 9.54892 22.0282C9.91888 22.3782 10.3324 22.5751 11.007 22.5751C13.7491 22.5751 18.6021 21.1094 18.6021 17.2812V8.44336Z" fill="black" stroke="white"/>
<path d="M18.6021 17.2812C18.6021 12.4467 12.378 11.3529 7.87322 11.3529C7.19858 11.3529 6.7851 11.1341 6.41513 10.806C6.04517 10.456 5.80579 9.99659 5.80579 9.47157V6.93398V3.60886C5.80579 3.08384 6.04517 2.62445 6.41513 2.27443C6.7851 1.9463 7.19858 1.72754 7.87322 1.72754C13.2268 1.72754 18.6021 4.33076 18.6021 8.4434V17.2812Z" fill="black" stroke="white"/>
</g>
<defs>
<clipPath id="clip0_615_353">
<rect width="24" height="24" fill="white"/>
</clipPath>
</defs>
</svg>
